<svg xmlns="http://www.w3.org/2000/svg" xmlns:xlink="http://www.w3.org/1999/xlink" style="isolation:isolate" viewBox="0 0 55 55">
    <g id="null">
        <g id="null">
            <g id="null">
                <g id="null">
                    <g id="null">
                        <g id="null">
                            <g id="null">
                                <g id="null">
                                    <rect width="28" height="4.48" x="7" y="6"      stroke-linecap="square" stroke-linejoin="miter" stroke-miterlimit="3" stroke-width="1" transform="matrix(1,0,0,1,0,0)" vector-effect="non-scaling-stroke"/>
                                    <rect width="28" height="6.02" x="7" y="17.48"      stroke-linecap="square" stroke-linejoin="miter" stroke-miterlimit="3" stroke-width="1" transform="matrix(1,0,0,1,0,0)" vector-effect="non-scaling-stroke"/>
                                    <rect width="28" height="7" x="7" y="30.5"      stroke-linecap="square" stroke-linejoin="miter" stroke-miterlimit="3" stroke-width="1" transform="matrix(1,0,0,1,0,0)" vector-effect="non-scaling-stroke"/>
                                    <rect width="42" height="3.5" x="7" y="44.5"      stroke-linecap="square" stroke-linejoin="miter" stroke-miterlimit="3" stroke-width="1" transform="matrix(1,0,0,1,0,0)" vector-effect="non-scaling-stroke"/>
                                    <rect width="14" height="3.5" x="35" y="34"      stroke-linecap="square" stroke-linejoin="miter" stroke-miterlimit="3" stroke-width="1" transform="matrix(1,0,0,1,0,0)" vector-effect="non-scaling-stroke"/>
                                    <rect width="4.48" height="7" x="7" y="10.48"      stroke-linecap="square" stroke-linejoin="miter" stroke-miterlimit="3" stroke-width="1" transform="matrix(1,0,0,1,0,0)" vector-effect="non-scaling-stroke"/>
                                    <rect width="3.64" height="7" x="31.36" y="10.48"      stroke-linecap="square" stroke-linejoin="miter" stroke-miterlimit="3" stroke-width="1" transform="matrix(1,0,0,1,0,0)" vector-effect="non-scaling-stroke"/>
                                    <rect width="5.88" height="7" x="18.48" y="10.48"      stroke-linecap="square" stroke-linejoin="miter" stroke-miterlimit="3" stroke-width="1" transform="matrix(1,0,0,1,0,0)" vector-effect="non-scaling-stroke"/>
                                    <rect width="3.64" height="7" x="31.36" y="23.5"      stroke-linecap="square" stroke-linejoin="miter" stroke-miterlimit="3" stroke-width="1" transform="matrix(1,0,0,1,0,0)" vector-effect="non-scaling-stroke"/>
                                    <rect width="5.88" height="7" x="18.48" y="23.5"      stroke-linecap="square" stroke-linejoin="miter" stroke-miterlimit="3" stroke-width="1" transform="matrix(1,0,0,1,0,0)" vector-effect="non-scaling-stroke"/>
                                    <rect width="4.48" height="7" x="7" y="23.5"      stroke-linecap="square" stroke-linejoin="miter" stroke-miterlimit="3" stroke-width="1" transform="matrix(1,0,0,1,0,0)" vector-effect="non-scaling-stroke"/>
                                    <rect width="4.48" height="7" x="7" y="37.5"      stroke-linecap="square" stroke-linejoin="miter" stroke-miterlimit="3" stroke-width="1" transform="matrix(1,0,0,1,0,0)" vector-effect="non-scaling-stroke"/>
                                    <rect width="5.88" height="7" x="18.48" y="37.5"      stroke-linecap="square" stroke-linejoin="miter" stroke-miterlimit="3" stroke-width="1" transform="matrix(1,0,0,1,0,0)" vector-effect="non-scaling-stroke"/>
                                    <rect width="7.14" height="7" x="31.36" y="37.5"   transform="matrix(1,0,0,1,0,0)"/>
                                    <g style="isolation: isolate;">
                                        <rect width="7.14" height="7" x="31.36" y="37.5" fill="none"    stroke-linecap="square" stroke-linejoin="miter" stroke-miterlimit="3" stroke-width="1" transform="matrix(1,0,0,1,0,0)" vector-effect="non-scaling-stroke"/>
                                        <rect width="7.14" height="7" x="31.36" y="37.5" fill="none"    stroke-linecap="square" stroke-linejoin="miter" stroke-miterlimit="3" stroke-width="0.226" transform="matrix(1,0,0,1,0,0)" vector-effect="non-scaling-stroke"/>
                                    </g>
                                    <rect width="3.5" height="7" x="45.5" y="37.5"      stroke-linecap="square" stroke-linejoin="miter" stroke-miterlimit="3" stroke-width="1" transform="matrix(1,0,0,1,0,0)" vector-effect="non-scaling-stroke"/>
                                </g>
                            </g>
                        </g>
                    </g>
                </g>
            </g>
        </g>
    </g>
</svg>
