<svg 
    xmlns="http://www.w3.org/2000/svg" 
    xmlns:xlink="http://www.w3.org/1999/xlink" style="isolation:isolate" viewBox="0 0 55 55">
    <g id="null">
        <path fill="none" stroke-linecap="square" stroke-linejoin="miter" stroke-miterlimit="3" stroke-width="1.796" d=" M 15.567 33.523 L 3.005 45.771 L 51.995 45.771 L 39.433 33.523 L 15.567 33.523 Z " vector-effect="non-scaling-stroke"/>
        <path fill="none" stroke-linecap="square" stroke-linejoin="miter" stroke-miterlimit="3" stroke-width="0.898" d=" M 13.612 39.386 C 13.703 40.028 15.026 42.079 18.156 41.296 C 18.916 41.106 20.014 40.816 20.766 40.566 C 22.977 40.566 25.754 43.458 27.886 42.392 C 30.458 41.106 29.316 36.56 31.85 37.827 C 34.421 39.112 33.734 42.147 36.415 43.487 C 38.838 44.699 41.273 42.629 43.718 43.852 C 44.199 44.092 45.465 44.114 45.544 44.035" vector-effect="non-scaling-stroke"/>
        <path fill="none" stroke-linecap="square" stroke-linejoin="miter" stroke-miterlimit="3" stroke-width="0.898" d=" M 17.248 35.503 L 15.049 38.601 L 19.76 38.601 L 20.702 37.387 L 22.691 37.387 L 23.214 35.503 L 17.248 35.503 Z " vector-effect="non-scaling-stroke"/>
        <g id="null">
            <path stroke-linecap="square" stroke-linejoin="miter" stroke-miterlimit="3" stroke-width="0.225" d=" M 19.704 22.817 L 27.5 38.853 L 35.296 22.817 L 19.704 22.817 Z " vector-effect="non-scaling-stroke"/>
            <g id="null">
                <path stroke-linecap="square" stroke-linejoin="miter" stroke-miterlimit="3" stroke-width="0.225" d=" M 36.441 18.21 C 36.441 13.01 32.695 9.229 27.46 9.229 C 22.341 9.229 18.424 13.359 18.424 18.21 C 18.424 18.214 24.092 18.221 24.092 18.21 C 24.092 16.289 25.521 14.618 27.46 14.618 C 29.399 14.618 30.827 16.289 30.827 18.21 C 30.827 18.218 36.441 18.213 36.441 18.21 Z " vector-effect="non-scaling-stroke"/>
                <path stroke-linecap="square" stroke-linejoin="miter" stroke-miterlimit="3" stroke-width="0.225" d=" M 36.441 18.222 C 36.441 23.423 32.695 27.203 27.46 27.203 C 22.341 27.203 18.424 23.073 18.424 18.222 C 18.424 18.218 24.092 18.211 24.092 18.222 C 24.092 20.144 25.521 21.815 27.46 21.815 C 29.399 21.815 30.827 20.144 30.827 18.222 C 30.827 18.214 36.441 18.22 36.441 18.222 Z " vector-effect="non-scaling-stroke"/>
            </g>
        </g>
    </g>
</svg>