<?xml version="1.0" standalone="no"?><!-- Generator: Gravit.io --><svg xmlns="http://www.w3.org/2000/svg" xmlns:xlink="http://www.w3.org/1999/xlink" style="isolation:isolate" viewBox="0 0 256 256" width="256" height="256"><defs><clipPath id="_clipPath_G9sstNDyWPdK6cp90FJQJb0u8RGBoAhD"><rect width="256" height="256"/></clipPath></defs><g clip-path="url(#_clipPath_G9sstNDyWPdK6cp90FJQJb0u8RGBoAhD)"><g id="Group"><path d=" M 150.934 125.83 C 150.934 122.275 153.82 119.389 157.374 119.389 C 160.929 119.389 163.815 122.275 163.815 125.83 C 163.815 129.385 160.929 132.271 157.374 132.271 C 153.82 132.271 150.934 129.385 150.934 125.83 Z " fill="none" vector-effect="non-scaling-stroke" stroke-width="8" stroke="rgb(60,92,108)" stroke-linejoin="miter" stroke-linecap="square" stroke-miterlimit="3"/><path d=" M 134.832 126.474 C 134.832 114.033 144.933 103.932 157.374 103.932 C 169.816 103.932 179.917 114.033 179.917 126.474 C 179.917 138.916 169.816 149.016 157.374 149.016 C 144.933 149.016 134.832 138.916 134.832 126.474 Z " fill="none" vector-effect="non-scaling-stroke" stroke-width="8" stroke="rgb(60,92,108)" stroke-linejoin="miter" stroke-linecap="square" stroke-miterlimit="3"/><path d=" M 105.849 126.474 C 105.849 98.037 128.937 74.949 157.374 74.949 C 185.812 74.949 208.899 98.037 208.899 126.474 C 208.899 154.912 185.812 177.999 157.374 177.999 C 128.937 177.999 105.849 154.912 105.849 126.474 Z " fill="none" vector-effect="non-scaling-stroke" stroke-width="8" stroke="rgb(60,92,108)" stroke-linejoin="miter" stroke-linecap="square" stroke-miterlimit="3"/><path d=" M 86.527 126.474 C 86.527 87.373 118.273 55.627 157.374 55.627 C 196.476 55.627 228.221 87.373 228.221 126.474 C 228.221 165.576 196.476 197.321 157.374 197.321 C 118.273 197.321 86.527 165.576 86.527 126.474 Z " fill="none" vector-effect="non-scaling-stroke" stroke-width="8" stroke="rgb(60,92,108)" stroke-linejoin="miter" stroke-linecap="square" stroke-miterlimit="3"/><path d=" M 121.951 126.474 C 121.951 106.923 137.823 91.051 157.374 91.051 C 176.925 91.051 192.798 106.923 192.798 126.474 C 192.798 146.025 176.925 161.898 157.374 161.898 C 137.823 161.898 121.951 146.025 121.951 126.474 Z " fill="none" vector-effect="non-scaling-stroke" stroke-width="8" stroke="rgb(60,92,108)" stroke-linejoin="miter" stroke-linecap="square" stroke-miterlimit="3"/><path d=" M 63.985 126.474 C 63.985 74.931 105.831 33.085 157.374 33.085 C 208.917 33.085 250.764 74.931 250.764 126.474 C 250.764 178.017 208.917 219.863 157.374 219.863 C 105.831 219.863 63.985 178.017 63.985 126.474 Z " fill="none" vector-effect="non-scaling-stroke" stroke-width="8" stroke="rgb(60,92,108)" stroke-linejoin="miter" stroke-linecap="square" stroke-miterlimit="3"/><path d=" M 5.375 129.05 L 11.816 126.474 L 14.392 134.203 L 20.833 126.474 L 23.409 140.644 L 40.154 26 L 54.324 238.541 L 67.205 76.237 L 81.375 181.864 L 91.68 86.542 L 98.12 154.813 L 107.137 107.152 L 114.866 134.203 L 123.883 122.61 L 129.035 134.203 L 139.34 126.474 L 157.374 126.474" fill="none" vector-effect="non-scaling-stroke" stroke-width="8" stroke="rgb(54,174,116)" stroke-linejoin="round" stroke-linecap="round" stroke-miterlimit="3"/></g></g></svg>