<?xml version="1.0" standalone="no"?><!-- Generator: Gravit.io --><svg xmlns="http://www.w3.org/2000/svg" xmlns:xlink="http://www.w3.org/1999/xlink" style="isolation:isolate" viewBox="0 0 256 256" width="256" height="256"><defs><clipPath id="_clipPath_uKlCr9LGFgNIzMVTviMcNaYb3BjrhwzO"><rect width="256" height="256"/></clipPath></defs><g clip-path="url(#_clipPath_uKlCr9LGFgNIzMVTviMcNaYb3BjrhwzO)"><line x1="70.443" y1="27.285" x2="185.557" y2="228.715" vector-effect="non-scaling-stroke" stroke-width="8" stroke="rgb(60,92,108)" stroke-linejoin="round" stroke-linecap="round" stroke-miterlimit="3"/><line x1="69.557" y1="228.203" x2="186.443" y2="27.797" vector-effect="non-scaling-stroke" stroke-width="8" stroke="rgb(60,92,108)" stroke-linejoin="round" stroke-linecap="round" stroke-miterlimit="3"/><line x1="12" y1="127.488" x2="244" y2="128.512" vector-effect="non-scaling-stroke" stroke-width="8" stroke="rgb(60,92,108)" stroke-linejoin="round" stroke-linecap="round" stroke-miterlimit="3"/><path d=" M 156.296 227.459 L 156.514 177.895 L 199.329 202.866 L 199.329 202.866" fill="none" vector-effect="non-scaling-stroke" stroke-width="8" stroke="rgb(60,92,108)" stroke-linejoin="round" stroke-linecap="round" stroke-miterlimit="3"/><path d=" M 228.282 153.225 L 185.467 128.253 L 228.5 103.661 L 228.5 103.661" fill="none" vector-effect="non-scaling-stroke" stroke-width="8" stroke="rgb(60,92,108)" stroke-linejoin="round" stroke-linecap="round" stroke-miterlimit="3"/><path d=" M 199.986 53.766 L 156.953 78.359 L 157.172 28.795 L 157.172 28.795" fill="none" vector-effect="non-scaling-stroke" stroke-width="8" stroke="rgb(60,92,108)" stroke-linejoin="round" stroke-linecap="round" stroke-miterlimit="3"/><path d=" M 99.704 28.541 L 99.486 78.105 L 56.671 53.134 L 56.671 53.134" fill="none" vector-effect="non-scaling-stroke" stroke-width="8" stroke="rgb(60,92,108)" stroke-linejoin="round" stroke-linecap="round" stroke-miterlimit="3"/><path d=" M 27.718 102.775 L 70.533 127.747 L 27.5 152.339 L 27.5 152.339" fill="none" vector-effect="non-scaling-stroke" stroke-width="8" stroke="rgb(60,92,108)" stroke-linejoin="round" stroke-linecap="round" stroke-miterlimit="3"/><path d=" M 56.009 203.361 L 99.042 178.768 L 98.823 228.332 L 98.823 228.332" fill="none" vector-effect="non-scaling-stroke" stroke-width="8" stroke="rgb(60,92,108)" stroke-linejoin="round" stroke-linecap="round" stroke-miterlimit="3"/></g></svg>