<?xml version="1.0" standalone="no"?><!-- Generator: Gravit.io --><svg xmlns="http://www.w3.org/2000/svg" xmlns:xlink="http://www.w3.org/1999/xlink" style="isolation:isolate" viewBox="0 0 256 256" width="256" height="256"><defs><clipPath id="_clipPath_ev8HUWz4uRBj9NOXN0W24hz4Up44aWU6"><rect width="256" height="256"/></clipPath></defs><g clip-path="url(#_clipPath_ev8HUWz4uRBj9NOXN0W24hz4Up44aWU6)"><path d=" M 28.708 113.509 Q 174.21 113.509 178.725 113.509 C 189.843 113.509 199.904 108.909 207.802 100.586 C 214.763 93.25 219.273 84.961 219.109 74.74 C 218.992 67.449 217.051 61.188 212.648 55.356 C 208.404 49.736 203.213 46.147 196.494 44.049 C 189.893 41.987 183.491 41.104 177.11 44.049 C 171.901 46.453 168.795 50.542 165.802 55.356 Q 163.226 59.501 160.956 68.279 L 160.956 68.279 L 160.956 68.279" fill="none" vector-effect="non-scaling-stroke" stroke-width="8" stroke="rgb(60,92,108)" stroke-linejoin="miter" stroke-linecap="round" stroke-miterlimit="3"/><path d=" M 6 132.893 Q 146.262 132.893 151.264 132.893 C 156.266 132.893 159.907 134.165 164.187 136.124 C 171.238 139.351 176.232 144.108 180.341 150.662 C 186.299 160.168 188.117 170.497 185.187 181.354 C 182.802 190.189 178.757 197.816 170.648 202.354 C 164.502 205.793 158.187 206.954 151.264 205.584 C 144.641 204.273 139.442 201.059 135.111 195.892 C 131.472 191.552 128.649 187.11 128.649 181.354 C 128.649 175.598 131.36 171.077 135.111 166.816 Q 138.699 162.739 148.034 158.739 L 148.034 158.739" fill="none" vector-effect="non-scaling-stroke" stroke-width="8" stroke="rgb(60,92,108)" stroke-linejoin="miter" stroke-linecap="round" stroke-miterlimit="3"/><path d=" M 185.187 132.893 Q 220.728 132.893 225.571 132.893 C 230.413 132.893 242.824 137.407 246.57 145.816 C 249.187 151.689 250.012 157.987 246.57 163.585 C 243.371 168.787 238.222 172.306 232.032 171.662 Q 225.122 170.943 219.109 158.739 L 219.109 158.739" fill="none" vector-effect="non-scaling-stroke" stroke-width="8" stroke="rgb(60,92,108)" stroke-linejoin="miter" stroke-linecap="round" stroke-miterlimit="3"/><path d=" M 19.419 155.508 Q 75.753 155.508 81.804 155.508 C 87.854 155.508 93.143 158.383 96.342 163.585 C 99.784 169.183 99.438 175.631 96.342 181.354 C 93.302 186.973 88.316 189.023 81.804 191.046 Q 79.236 191.844 81.804 191.046" fill="none" vector-effect="non-scaling-stroke" stroke-width="8" stroke="rgb(60,92,108)" stroke-linejoin="miter" stroke-linecap="round" stroke-miterlimit="3"/></g></svg>